PathFileType	4	(X/Y/Z)	Walk9.trc
DataRate	CameraRate	NumFrames	NumMarkers	Units	OrigDataRate	OrigDataStartFrame	OrigNumFrames
200.000000	200.000000	4	61	mm	200.000000	522	817
Frame#	Times		RCAR		LTH3		LTB1		LBHD		RWRU		LWRU		LFA1		RTH2		LUA1		LElbow		LCAR		LTH2		RPSI		RTH3		C7		LElbowM		RFA1		RBHD		RToe		RTB2		RTB3		LTH1		RTB1		RMT5		RElbow		RASI		RLFC		RTB4		LWRR		RMT1		RTH4		T10		RBack		RLMAL		LPSI		CLAV		RMFC		RMMAL		RCAL		RUA1		LMFC		LACR1		LLFC		STRN		RWRR		RTH1		LTH4		LTB4		RElbowM		LASI		LTB3		LMT5		LFHD		RFHD		RACR1		LCAL		LMMAL		LTB2		LLMAL		LToe		LMT1
			X1	Y1	Z1	X2	Y2	Z2	X3	Y3	Z3	X4	Y4	Z4	X5	Y5	Z5	X6	Y6	Z6	X7	Y7	Z7	X8	Y8	Z8	X9	Y9	Z9	X10	Y10	Z10	X11	Y11	Z11	X12	Y12	Z12	X13	Y13	Z13	X14	Y14	Z14	X15	Y15	Z15	X16	Y16	Z16	X17	Y17	Z17	X18	Y18	Z18	X19	Y19	Z19	X20	Y20	Z20	X21	Y21	Z21	X22	Y22	Z22	X23	Y23	Z23	X24	Y24	Z24	X25	Y25	Z25	X26	Y26	Z26	X27	Y27	Z27	X28	Y28	Z28	X29	Y29	Z29	X30	Y30	Z30	X31	Y31	Z31	X32	Y32	Z32	X33	Y33	Z33	X34	Y34	Z34	X35	Y35	Z35	X36	Y36	Z36	X37	Y37	Z37	X38	Y38	Z38	X39	Y39	Z39	X40	Y40	Z40	X41	Y41	Z41	X42	Y42	Z42	X43	Y43	Z43	X44	Y44	Z44	X45	Y45	Z45	X46	Y46	Z46	X47	Y47	Z47	X48	Y48	Z48	X49	Y49	Z49	X50	Y50	Z50	X51	Y51	Z51	X52	Y52	Z52	X53	Y53	Z53	X54	Y54	Z54	X55	Y55	Z55	X56	Y56	Z56	X57	Y57	Z57	X58	Y58	Z58	X59	Y59	Z59	X60	Y60	Z60	X61	Y61	Z61

522	2.61	-184.66	858.31	319.68	-285.99	613.52	-152.05	-227.42	378.25	-61.298	-376.16	1638	-79.966	-251.68	869.63	312.71	-371.67	849.37	-270.3	-397.24	981.81	-288.8	-287.44	691.88	186.91	-378.03	1286.6	-267.23	-411.91	1132.7	-286.75	-302.33	806.63	-269.69	-234.65	719.62	-150.67	-510.71	1019.9	40.426	-363.5	599.86	205.19	-402.8	1510.6	-5.6823	-450.64	1127.9	-219.41	-315.69	991.11	314.6	-368.49	1648.3	61.394	-610.24	42.977	142.92	-524.98	323.98	188.93	-570.3	250.9	117.87	-308.89	798.29	-185.15	-422.71	362.41	140.58	-688.3	94.304	180.28	-371.87	1133.9	293.57	-306.21	1032.3	150.82	-389.83	491.07	204.89	-495.72	305.18	128.15	-306.96	862.08	-219.61	-641.11	67.076	113.89	-358.13	693.98	207.69	-510.4	1288.6	-5.415	-478.97	1425.6	129.3	-698.79	204.87	146.37	-509.68	1019.2	-37.342	-272.82	1421.1	-5.2911	-349.75	488.54	77.795	-646.04	190.53	77.083	-748.81	222.01	85.703	-346.39	1289.4	253.11	-265.36	523.11	-11.017	-330.48	1460.3	-173.89	-274.22	512.7	-140.25	-227.27	1247.8	-6.3269	-195.84	895	264.09	-357.94	789.94	203.02	-303.15	702.8	-169.63	-242.76	289.47	-56.9	-395.5	1113.9	217.15	-291.34	1033.3	-132.92	-258.5	194.44	-55.259	-217.81	21.284	-128.56	-196.05	1677.6	-48.024	-192.87	1681.8	27.979	-324.98	1459	153.61	-373.64	26.884	-50.086	-288.56	89.854	-12.439	-265.15	291.45	-129.07	-315.44	68.393	-93.24	-115.53	30.174	-58.414	-169.6	38.811	-43.778
523	2.615	-183.55	857.33	318.96	-283.03	613.61	-152.35	-226.1	377.97	-61.477	-371.09	1638.7	-80.645	-250.44	869.33	311.81	-362.49	850.13	-271.03	-388.9	982.41	-289.81	-279.81	693.57	187.19	-371.52	1287.3	-268.01	-404.61	1133.3	-287.89	-292.75	808.01	-270.21	-231.05	719.45	-150.85	-505.72	1020.6	39.836	-354.94	600.76	205.48	-397.83	1511.3	-6.3839	-443.69	1128.1	-220.8	-313.53	991.24	313.45	-363.56	1649.1	60.731	-600.24	44.631	143.82	-515.13	325.43	188.92	-560.39	252.34	117.82	-303.52	799.34	-185.52	-412.78	363.61	140.88	-678.39	96.615	180.57	-368.68	1134.3	292.28	-301.3	1032.9	150.93	-380.07	492.04	205.2	-485.74	306.51	128.27	-298.02	863.41	-220.16	-630.98	68.904	114.5	-350.61	694.92	207.85	-505.43	1289.3	-6.401	-474.47	1426.2	128.26	-689.07	206.71	145.96	-504.71	1019.9	-37.913	-267.89	1421.7	-5.6481	-339.56	489.62	78.173	-636.18	192.2	76.752	-739.05	223.5	85.08	-342.77	1289.8	252.45	-263.38	522.96	-11.192	-325.03	1461	-174.31	-272.06	512.61	-140.49	-222.32	1248.5	-6.4655	-194.22	894.23	263.4	-351.43	790.86	203.02	-299.74	702.98	-169.95	-241.93	289.24	-56.964	-392.1	1114.6	215.78	-286.29	1033.8	-132.92	-258	194.29	-55.327	-217.82	21.25	-128.58	-191	1678.2	-48.546	-187.9	1682.5	27.473	-320.5	1459.7	153.24	-373.67	26.902	-50.096	-288.5	89.912	-12.506	-264.04	291.25	-129.25	-315.47	68.42	-93.304	-115.53	30.157	-58.411	-169.62	38.798	-43.791
524	2.62	-182.49	856.4	318.27	-280.07	613.72	-152.64	-224.84	377.7	-61.623	-366.03	1639.4	-81.297	-249.24	869.06	310.93	-353.29	850.93	-271.76	-380.54	983.03	-290.82	-272.2	695.3	187.43	-365.02	1288	-268.76	-397.29	1133.8	-289	-283.15	809.43	-270.74	-227.47	719.31	-150.95	-500.75	1021.3	39.294	-346.42	601.72	205.77	-392.88	1512	-7.0594	-436.72	1128.4	-222.17	-311.4	991.39	312.32	-358.64	1649.8	60.092	-589.73	46.171	144.6	-505.2	326.8	188.9	-550.28	253.61	117.78	-298.19	800.4	-185.86	-402.82	364.82	141.22	-668.06	98.594	180.8	-365.52	1134.7	291.01	-296.37	1033.6	151.06	-370.39	493.05	205.49	-475.63	307.76	128.41	-289.05	864.77	-220.71	-620.39	70.534	115.01	-343.12	695.91	208.01	-500.47	1290	-7.3576	-469.99	1426.9	127.23	-679.12	208.23	145.53	-499.77	1020.6	-38.44	-262.97	1422.4	-5.987	-329.44	490.77	78.55	-626.06	193.63	76.398	-729.09	224.61	84.457	-339.18	1290.3	251.8	-261.37	522.79	-11.346	-319.61	1461.6	-174.72	-269.95	512.53	-140.71	-217.4	1249.2	-6.582	-192.65	893.49	262.72	-344.92	791.84	203.03	-296.31	703.18	-170.26	-241.15	289.02	-57.002	-388.75	1115.2	214.45	-281.28	1034.4	-132.94	-257.52	194.15	-55.384	-217.84	21.216	-128.6	-185.96	1678.8	-49.045	-182.94	1683.1	26.99	-316.03	1460.4	152.88	-373.69	26.925	-50.106	-288.45	89.971	-12.573	-262.95	291.06	-129.41	-315.5	68.45	-93.372	-115.53	30.137	-58.409	-169.63	38.786	-43.806
525	2.625	-181.46	855.51	317.6	-277.12	613.86	-152.9	-223.62	377.44	-61.74	-360.99	1640.1	-81.923	-248.07	868.82	310.08	-344.06	851.75	-272.49	-372.16	983.67	-291.8	-264.62	697.07	187.63	-358.52	1288.7	-269.48	-389.96	1134.3	-290.1	-273.52	810.89	-271.27	-223.91	719.18	-150.98	-495.8	1022	38.802	-337.94	602.76	206.07	-387.93	1512.7	-7.7095	-429.73	1128.7	-223.52	-309.31	991.56	311.22	-353.74	1650.6	59.477	-578.74	47.575	145.24	-495.2	328.07	188.88	-540	254.72	117.74	-292.99	801.42	-186.17	-392.82	366.01	141.6	-657.33	100.23	180.97	-362.42	1135.1	289.78	-291.44	1034.3	151.19	-360.77	494.12	205.77	-465.41	308.93	128.57	-280.05	866.16	-221.26	-609.37	71.95	115.42	-335.65	696.96	208.19	-495.53	1290.6	-8.2844	-465.52	1427.6	126.22	-668.93	209.42	145.1	-494.85	1021.3	-38.922	-258.07	1423	-6.3091	-319.4	491.97	78.928	-615.69	194.82	76.025	-718.93	225.33	83.843	-335.62	1290.8	251.18	-259.34	522.61	-11.48	-314.21	1462.3	-175.11	-267.89	512.46	-140.91	-212.49	1249.8	-6.6791	-191.11	892.79	262.07	-338.41	792.85	203.04	-292.87	703.4	-170.56	-240.4	288.82	-57.02	-385.45	1115.9	213.15	-276.33	1035	-132.98	-257.06	194.02	-55.432	-217.85	21.184	-128.62	-180.95	1679.5	-49.524	-178.01	1683.8	26.531	-311.58	1461.1	152.55	-373.72	26.954	-50.115	-288.4	90.032	-12.637	-261.89	290.89	-129.54	-315.52	68.485	-93.441	-115.52	30.114	-58.409	-169.64	38.773	-43.82
